<?xml version="1.0" encoding="UTF-8" standalone="no"?>
<!-- Created with Inkscape (http://www.inkscape.org/) -->

<svg
   xmlns:dc="http://purl.org/dc/elements/1.1/"
   xmlns:cc="http://creativecommons.org/ns#"
   xmlns:rdf="http://www.w3.org/1999/02/22-rdf-syntax-ns#"
   xmlns:svg="http://www.w3.org/2000/svg"
   xmlns="http://www.w3.org/2000/svg"
   xmlns:sodipodi="http://sodipodi.sourceforge.net/DTD/sodipodi-0.dtd"
   xmlns:inkscape="http://www.inkscape.org/namespaces/inkscape"
   width="273.06668"
   height="273.06668"
   id="svg2"
   version="1.1"
   inkscape:version="0.92.1 r15371"
   sodipodi:docname="ip_working.svg"
   inkscape:export-filename="D:\DOC\Fotojaba\icons\ipinformer\ff-plugin\1working.png"
   inkscape:export-xdpi="11.25"
   inkscape:export-ydpi="11.25">
  <defs
     id="defs4">
    <pattern
       y="0"
       x="0"
       height="6"
       width="6"
       patternUnits="userSpaceOnUse"
       id="EMFhbasepattern" />
  </defs>
  <sodipodi:namedview
     id="base"
     pagecolor="#ffffff"
     bordercolor="#666666"
     borderopacity="1.0"
     inkscape:pageopacity="1"
     inkscape:pageshadow="2"
     inkscape:zoom="0.98994949"
     inkscape:cx="-15.121932"
     inkscape:cy="174.66262"
     inkscape:document-units="px"
     inkscape:current-layer="layer2"
     showgrid="false"
     inkscape:window-width="1024"
     inkscape:window-height="720"
     inkscape:window-x="-4"
     inkscape:window-y="-4"
     inkscape:window-maximized="1" />
  <metadata
     id="metadata7">
    <rdf:RDF>
      <cc:Work
         rdf:about="">
        <dc:format>image/svg+xml</dc:format>
        <dc:type
           rdf:resource="http://purl.org/dc/dcmitype/StillImage" />
        <dc:title />
      </cc:Work>
    </rdf:RDF>
  </metadata>
  <g
     inkscape:label="Layer 1"
     inkscape:groupmode="layer"
     id="layer1"
     transform="translate(0,-849.45299)" />
  <g
     inkscape:groupmode="layer"
     id="layer2"
     inkscape:label="Fon">
    <rect
       style="fill:#000000;fill-opacity:1;stroke:none;stroke-width:1.06666672"
       id="rect2986"
       width="277.45523"
       height="276.9165"
       x="-2.6937401"
       y="-2.2335739" />
    <rect
       style="fill:#ff6600;fill-opacity:1;stroke:none;stroke-width:5.22054672;stroke-linejoin:miter;stroke-miterlimit:4;stroke-dasharray:none;stroke-opacity:1"
       id="rect15"
       width="277.22952"
       height="51.183468"
       x="-2.4680083"
       y="-2.2335739" />
    <rect
       style="fill:#ff6600;fill-opacity:1;stroke:none;stroke-width:5.22054672;stroke-linejoin:miter;stroke-miterlimit:4;stroke-dasharray:none;stroke-opacity:1"
       id="rect15-3"
       width="277.22952"
       height="51.183468"
       x="-2.6937401"
       y="223.49945" />
    <g
       id="g51"
       transform="matrix(1.3224064,0,0,1.3064224,-48.086147,-40.382702)">
      <g
         id="g43">
        <circle
           style="fill:none;fill-opacity:1;stroke:#ffffff;stroke-width:10;stroke-linejoin:miter;stroke-miterlimit:4;stroke-dasharray:none;stroke-opacity:1"
           id="path59"
           cx="140.00002"
           cy="135.20953"
           r="60.796459" />
      </g>
      <g
         transform="matrix(0.23733995,0,0,0.26551378,140.84746,42.942277)"
         id="g37">
        <path
           id="path18"
           d="m -100.47016,530.59188 c -0.79999,-0.4 -3.03997,-0.64 -4.95996,-0.71999 -1.99998,0 -4.39997,-0.56 -5.35996,-1.12 -1.03999,-0.55999 -2.47998,-1.03999 -3.19998,-1.03999 -1.91998,0 -14.63989,-5.83996 -17.59987,-7.99994 -1.35998,-0.95999 -3.35997,-2.15998 -4.47996,-2.71998 -3.67997,-1.83999 -11.51992,-11.91991 -15.59989,-19.83985 l -3.67997,-7.35995 v -11.91991 c 0.16,-23.75982 5.35996,-43.83967 18.55986,-71.03947 4.87997,-9.99993 10.23993,-19.59986 12.79991,-22.79983 3.35997,-4.31997 10.23992,-16.23988 14.63989,-25.59981 2.31998,-4.87997 3.11998,-6.07996 3.67997,-5.11997 0.32,0.64 0.96,1.12 1.27999,1.12 0.4,0 1.27999,0.47999 1.91999,1.11999 1.67999,1.51999 12.639906,9.43993 20.15985,14.63989 3.359976,2.31998 7.599944,5.59996 9.439931,7.19995 l 3.279975,3.03997 -6.319953,18.95986 -6.399953,18.87986 0.399997,7.11995 c 0.639996,9.43993 1.43999,11.43991 5.43996,12.47991 5.35996,1.51999 13.039904,0.55999 18.799857,-2.31999 10.23993,-5.03996 13.7599,-6.95994 15.75989,-8.63993 5.43996,-4.47997 18.39986,-13.9999 19.11986,-13.9999 0.47999,0 3.59997,1.83999 6.87994,4.15997 3.27998,2.23998 11.91992,7.35995 19.19986,11.19992 7.27995,3.91997 13.8399,7.43994 14.55989,7.91994 1.28,0.71999 1.12,1.19999 -2.95997,7.51994 -2.39999,3.67998 -4.87997,7.83995 -5.59996,9.19994 -0.64,1.35999 -1.59999,2.71998 -2.07999,3.11997 -0.47999,0.4 -3.51997,4.31997 -6.71995002,8.79994 -3.19996998,4.39996 -9.51992998,12.23991 -13.99988998,17.43987 -9.67993,10.95992 -29.75978,30.47977 -37.19973,35.91973 -6.15995,4.63997 -14.959887,9.51993 -17.039871,9.51993 -0.799994,0 -2.399983,0.48 -3.519974,1.03999 -1.199991,0.56 -4.15997,1.35999 -6.719951,1.75999 -5.519959,0.87999 -20.479848,0.95999 -22.479838,0.08 z"
           style="fill:#ff0000;fill-opacity:1;fill-rule:nonzero;stroke:#000000;stroke-width:5.99995565px;stroke-linecap:butt;stroke-linejoin:miter;stroke-miterlimit:4;stroke-dasharray:none;stroke-opacity:1"
           inkscape:connector-curvature="0" />
        <path
           id="path22"
           d="m -84.470274,441.79254 c -1.519988,-1.35999 -0.639995,-15.59989 1.519989,-23.59983 2.159984,-8.23994 12.719906,-33.67975 14.959889,-36.15973 0.639996,-0.71999 2.959978,-1.59999 5.039963,-1.91999 8.719937,-1.51998 17.119877,-11.19991 45.439667,-52.8796 6.31995,-9.11994 9.83992,-12.79991 12.5599,-12.79991 3.11998,0 17.19988,7.03995 21.43984,10.63992 1.99999,1.75999 3.67998,4.23997 3.67998,5.51996 0,2.79998 -15.91988,24.55982 -32.95976,45.03967 -14.55989,17.43987 -16.15988,20.63985 -13.3599,25.75981 1.03999,1.83998 2.79998,4.31997 3.83997,5.35996 1.35999,1.51999 1.43999,2.07998 0.4,2.39998 -0.8,0.24 -2.23998,1.83999 -3.19998,3.51997 -1.67998,2.87998 -20.87984,17.43987 -24.87981,18.71987 -1.11999,0.39999 -1.99999,1.19999 -1.99999,1.75998 0,0.56 -0.71999,1.03999 -1.59999,1.03999 -0.79999,0 -2.15998,0.72 -2.95997,1.59999 -2.959982,3.19998 -25.599815,8.07994 -27.919798,5.99996 z"
           style="fill:#ff0000;fill-opacity:1;fill-rule:nonzero;stroke:#000000;stroke-width:3.3599751px;stroke-linecap:butt;stroke-linejoin:miter;stroke-miterlimit:4;stroke-dasharray:none;stroke-opacity:1"
           inkscape:connector-curvature="0" />
        <path
           sodipodi:nodetypes="ccccc"
           inkscape:connector-curvature="0"
           id="rect39"
           d="m -297.39457,210.79459 197.16149,-18.66842 -1.53839,29.60602 -195.502,18.6023 z"
           style="fill:#ff0000;fill-opacity:1;stroke:none;stroke-width:126.55580902;stroke-linejoin:miter;stroke-miterlimit:4;stroke-dasharray:none;stroke-opacity:1"
           transform="matrix(0.66067381,-0.75067311,0.89340885,0.4492445,0,0)" />
      </g>
    </g>
  </g>
  <g
     inkscape:groupmode="layer"
     id="layer3"
     inkscape:label="Main" />
</svg>
